<?xml version="1.0" encoding="utf-8"?>
<!-- Generator: Adobe Illustrator 26.0.1, SVG Export Plug-In . SVG Version: 6.00 Build 0)  -->
<svg version="1.1" id="Layer_1" xmlns="http://www.w3.org/2000/svg" xmlns:xlink="http://www.w3.org/1999/xlink" x="0px" y="0px"
	 viewBox="0 0 331.1 316.9" style="enable-background:new 0 0 331.1 316.9;" xml:space="preserve">
<style type="text/css">
	.st0{fill:#FFFFFF;}
	.st1{fill:#EF3238;}
</style>
<g>
	<g>
		<path class="st0" d="M100.3,0h21.9c0.3,0,0.6,0.3,0.9,0.3c0.3,0.3,0.6,0.3,0.6,0.6c2.5,4.4,5,8.8,7.2,13.2
			c0.3,0.6,0.6,1.3,1.3,1.6c0.6,0.3,1.3,0.6,1.9,0.3c49.2,0,98.3,0,147.5,0c5.6,0,11.6,1.3,16.6,3.4c7.5,3.1,14.1,7.8,19.7,13.8
			c5.6,5.9,10,12.8,12.8,20.4c0.6,1.3,0.3,1.9-0.9,2.5c-22.2,10.6-44.5,21.3-66.7,31.9l-84.9,41c-0.6,0.3-1.3,0.6-1.9,0.9
			c0.6,0.3,0.9,0.9,1.6,1.3c28.2,20,57.9,38.2,86.7,57c13.5,8.8,26.9,17.5,40.7,26c0.6,0.3,0.9,0.9,1.3,1.6s0.3,1.3,0.3,1.9
			c-1.9,20.7-10.6,37.9-24.1,53.2c-10.6,11.9-23.8,20.7-38.2,27.9c-1.3,0.6-1.6-0.3-1.9-0.9c-9.4-19.7-19.1-39.5-28.5-59.5
			C176.7,159.7,139.2,80.8,101.6,2.2C100.9,1.6,100.9,0.9,100.3,0z"/>
		<path class="st0" d="M165.8,201.4c-4.1-2.8-7.8-5.3-11.9-7.8c-39.1-23.5-78.3-46.7-117.4-69.8c-0.6-0.3-0.9-0.6-1.3-0.9
			c-0.3-0.3-0.3-0.9-0.3-1.6c1.6-17.8,5.3-35.1,11.3-51.7c3.8-10.3,9.1-20,16-28.5c8.5-10,19.1-16.9,32.3-19.1
			c3.8-0.6,3.8-0.6,5.3,2.8c33.8,72,67.6,144.4,101.5,216.4c11.3,24.1,22.5,48.2,33.8,72.3c0.3,0.6,0.6,1.3,0.9,1.9l-12.2,0.9
			c-2.5,0.3-5,0.3-7.2,0.6c-0.3,0-0.9,0-1.3,0c-0.3-0.3-0.6-0.6-0.9-0.9c-2.5-5-5-10-7.5-15c-0.3-0.3-0.6-0.9-0.9-1.3
			c-0.3-0.3-0.9-0.3-1.3-0.3H7.3c-1.6,0-3.1,0-5,0c-1.6,0-1.9-0.6-2.2-1.9c-0.3-1.9,0-3.8,0.9-5.6c0.9-1.9,1.9-3.1,3.4-4.4
			L163.3,202C164.5,202,164.8,201.7,165.8,201.4z"/>
		<path class="st1" d="M10.5,247.4c0.6-3.4,1.3-6.3,1.9-9.4c5-24.4,10.3-48.9,15.3-73c0.3-0.9,0.3-1.3,1.6-0.6
			C52.1,178.2,75,192,97.8,206c0.3,0.3,0.6,0.3,0.9,0.6L10.5,247.4z"/>
		<path class="st1" d="M328.3,94.6c-1.9,9.7-3.8,18.8-5.3,28.2c-3.1,17.2-6.6,34.1-10,51.4c-0.6,2.5-0.3,2.5-2.5,1.3l-65.1-37.3
			c-0.6-0.3-0.9-0.6-1.9-0.9L328.3,94.6z"/>
	</g>
</g>
</svg>
